<?xml version="1.0" encoding="utf-8"?>
<!-- Generator: Adobe Illustrator 23.0.1, SVG Export Plug-In . SVG Version: 6.00 Build 0)  -->
<svg version="1.1" id="Layer_1" xmlns="http://www.w3.org/2000/svg" xmlns:xlink="http://www.w3.org/1999/xlink" x="0px" y="0px"
	 viewBox="0 0 216 216" style="enable-background:new 0 0 216 216;" xml:space="preserve">
<style type="text/css">
	.st0{fill:#363B44;}
	.st1{fill:#F9BB10;}
	.st2{fill:#616B77;}
</style>
<circle class="st0" cx="106.65" cy="91.71" r="73.96"/>
<g>
	<path class="st0" d="M56.12,184.45l-2.86-1.99l7.81-11.25c0.64-0.92,1.48-2.01,2.52-3.26l-0.05-0.03
		c-0.71,0.64-1.24,1.07-1.61,1.31l-14.21,9.39l-1.99-1.38l3.75-16.51c0.12-0.48,0.37-1.17,0.74-2.05l-0.05-0.03
		c-0.42,0.74-1.17,1.9-2.27,3.47l-7.79,11.22l-2.67-1.85l12.07-17.38l4.06,2.82l-3.47,14.75c-0.27,1.13-0.5,1.95-0.7,2.46l0.06,0.04
		c0.93-0.71,1.65-1.22,2.14-1.53l12.66-8.29l3.91,2.72L56.12,184.45z"/>
	<path class="st0" d="M80.65,186.24l-9.79-3.19c-0.4,1.34-0.32,2.5,0.23,3.47c0.55,0.97,1.5,1.68,2.87,2.13
		c1.53,0.5,3.09,0.5,4.67,0l-0.85,2.62c-1.58,0.4-3.44,0.25-5.59-0.45c-2.11-0.69-3.56-1.88-4.34-3.58
		c-0.78-1.7-0.78-3.73-0.01-6.09c0.73-2.24,1.98-3.84,3.76-4.82c1.78-0.98,3.65-1.15,5.62-0.51c1.96,0.64,3.28,1.76,3.94,3.38
		c0.67,1.61,0.63,3.54-0.1,5.79L80.65,186.24z M78.26,182.92c0.37-1.17,0.39-2.17,0.06-3c-0.33-0.83-0.97-1.4-1.93-1.71
		c-0.94-0.3-1.84-0.22-2.71,0.25c-0.87,0.47-1.56,1.23-2.07,2.29L78.26,182.92z"/>
	<path class="st0" d="M98.29,182.02l-9.83,9.54l8.02,1.32l-0.43,2.63l-12.75-2.09l0.21-1.27l10.03-9.66l-7.44-1.22l0.43-2.64
		l12,1.97L98.29,182.02z"/>
	<path class="st0" d="M113.41,182.84l-8.46,10.78l8.13,0.22l-0.07,2.67l-12.92-0.35l0.03-1.28l8.64-10.92l-7.54-0.2l0.07-2.67
		l12.15,0.33L113.41,182.84z"/>
	<path class="st0" d="M134.14,192.87l-3.33,0.77l-0.54-2.33l-0.06,0.01c-0.56,2.01-1.85,3.25-3.9,3.72c-3.48,0.8-5.7-0.88-6.67-5.06
		l-2.03-8.8l3.33-0.77l1.96,8.45c0.61,2.65,1.94,3.73,3.98,3.26c0.99-0.23,1.72-0.78,2.18-1.66s0.57-1.9,0.29-3.08l-1.96-8.47
		l3.33-0.77L134.14,192.87z"/>
	<path class="st0" d="M145.19,175.79c-0.5-0.15-1.12-0.07-1.84,0.22c-0.94,0.38-1.55,1.12-1.84,2.22s-0.14,2.38,0.45,3.84l2.7,6.71
		l-3.17,1.28l-5.65-14.01l3.17-1.28l1.16,2.89l0.05-0.02c-0.09-1.11,0.08-2.07,0.5-2.88c0.42-0.81,1.03-1.38,1.82-1.7
		c0.57-0.23,1.05-0.32,1.42-0.27L145.19,175.79z"/>
	<path class="st0" d="M146.8,167.76c-0.5,0.26-1.01,0.31-1.53,0.17s-0.91-0.46-1.16-0.96c-0.26-0.5-0.29-1.01-0.11-1.52
		c0.18-0.51,0.53-0.9,1.03-1.15c0.52-0.26,1.04-0.32,1.57-0.17c0.53,0.15,0.92,0.47,1.18,0.97c0.24,0.47,0.27,0.97,0.08,1.49
		C147.67,167.1,147.32,167.5,146.8,167.76z M156.64,183.26l-3.05,1.56l-6.88-13.45l3.05-1.56L156.64,183.26z"/>
	<path class="st0" d="M169.29,175.27c-0.37,0.65-1.01,1.28-1.92,1.88c-2.44,1.63-4.44,1.27-6-1.07l-4.74-7.11l-2.1,1.4l-1.49-2.23
		l2.1-1.4l-1.94-2.91l2.31-2.71l2.48,3.72l3.01-2l1.49,2.23l-3.01,2l4.19,6.29c0.5,0.75,0.99,1.19,1.47,1.33
		c0.48,0.14,1.04,0,1.67-0.42c0.48-0.32,0.81-0.74,0.97-1.25L169.29,175.27z"/>
	<path class="st0" d="M179.36,156.11l-6.78,7.75c1.08,0.89,2.17,1.28,3.28,1.16c1.11-0.12,2.14-0.72,3.08-1.8
		c1.06-1.21,1.67-2.65,1.84-4.29l2.08,1.82c-0.26,1.61-1.13,3.26-2.62,4.96c-1.46,1.67-3.13,2.53-4.99,2.58
		c-1.86,0.05-3.73-0.75-5.61-2.39c-1.77-1.55-2.75-3.33-2.95-5.36s0.38-3.81,1.75-5.37s2.91-2.32,4.66-2.3s3.5,0.81,5.28,2.37
		L179.36,156.11z M175.36,157.01c-0.93-0.8-1.84-1.21-2.73-1.24c-0.89-0.02-1.67,0.35-2.33,1.1c-0.65,0.74-0.93,1.6-0.84,2.59
		c0.09,0.99,0.52,1.92,1.29,2.81L175.36,157.01z"/>
</g>
<path class="st1" d="M72.47,39.98c0,0,6.68-3.11,15.71,11.9c0,0,5.53,10.92,14.16,34.91c0.44,1.22,8.09,24.91,8.09,24.91
	s-4.69,22.21-15.79,24.73C94.06,136.55,76,80.43,74.43,75.86c0,0-7.07-19.22-10.41-21.42C64.02,54.44,67.16,40.89,72.47,39.98z"/>
<path class="st1" d="M153.9,52.96c0,0-1.66-5.27-8.53-6.98c-4.42-1.1-9.66-1.83-14.3,1.8l-18.34,64.15c0,0-4.9,23.16-16.06,25.38
	l24.09,0.03c0,0,11.26-0.95,14.8-15.01L152,57.61C152,57.61,152.83,53.44,153.9,52.96z"/>
<path class="st1" d="M68.84,39.71l-22.69,4.85c0,0-7.07,2.01-9.04,10.98l-19.45,85.12c0,0-5.04,14.49-12.57,15.74l22.59,4.03
	c0,0,9.62-0.92,16.3-22.52L61.27,53.9C61.27,53.9,63.93,42.64,68.84,39.71z"/>
<path class="st1" d="M141.72,43.4l17.76,0c0,0,16.89,1.39,21.33,13.51l18.1,64.48c0,0,1.26,7.02,12.57,12.81l-26.72,3.67
	c0,0-7.4-4.43-12.17-18.72l-16.6-65.65C155.99,53.52,154.91,44.45,141.72,43.4z"/>
<g>
	<polygon class="st2" points="15.53,145.63 21.74,146.63 20.57,148.36 14.56,147.45 	"/>
	<polygon class="st2" points="18.05,139.02 24.86,140.12 24.3,141.94 17.57,140.93 	"/>
	<polygon class="st2" points="19.57,132.34 31.12,134.22 30.59,136.38 19.08,134.49 	"/>
	<polygon class="st2" points="21,126.02 27.83,127.13 27.38,129.06 20.58,127.94 	"/>
	<polygon class="st2" points="22.55,119.28 29.52,120.32 29.05,122.24 22.12,121.2 	"/>
	<polygon class="st2" points="24.07,112.63 35.62,114.57 35.19,116.69 23.59,114.77 	"/>
	<polygon class="st2" points="25.55,106.17 32.38,107.27 31.93,109.21 25.11,108.08 	"/>
	<polygon class="st2" points="27.07,99.52 34.03,100.56 33.56,102.48 26.63,101.44 	"/>
	<polygon class="st2" points="28.6,92.8 40.24,94.28 39.81,96.38 28.11,94.94 	"/>
	<polygon class="st2" points="30.07,86.38 36.96,87.21 36.51,89.16 29.63,88.3 	"/>
	<polygon class="st2" points="31.51,80.02 38.54,80.79 38.07,82.75 31.08,81.93 	"/>
	<polygon class="st2" points="33.16,72.85 44.8,74.33 44.37,76.43 32.67,74.99 	"/>
	<polygon class="st2" points="34.79,65.58 41.68,66.42 41.23,68.39 34.38,67.5 	"/>
	<polygon class="st2" points="36.47,58.41 43.56,58.93 43.06,60.97 36.03,60.33 	"/>
</g>
</svg>
